<mxfile host="app.diagrams.net" modified="2024-02-06T04:05:18.398Z" agent="Mozilla/5.0 (Windows NT 10.0; Win64; x64) AppleWebKit/537.36 (KHTML, like Gecko) Chrome/121.0.0.0 Safari/537.36" version="23.0.0" etag="D2jV9l6_3TgHpnPNG3ze" type="github">
  <diagram name="Page-1" id="pKk5RZ8r_B5BESb2tk-T">
    <mxGraphModel>
      <root>
        <mxCell id="0" />
        <mxCell id="1" parent="0" />
      </root>
    </mxGraphModel>
  </diagram>
</mxfile>
